<svg width="24" height="24" viewBox="0 0 24 24" fill="none" xmlns="http://www.w3.org/2000/svg">
<circle cx="12" cy="12" r="12" fill="black"/>
<path d="M12 18C12.34 18 12.625 17.885 12.855 17.655C13.085 17.425 13.2 17.14 13.2 16.8C13.2 16.46 13.085 16.175 12.855 15.945C12.625 15.715 12.34 15.6 12 15.6C11.66 15.6 11.375 15.715 11.145 15.945C10.915 16.175 10.8 16.46 10.8 16.8C10.8 17.14 10.915 17.425 11.145 17.655C11.375 17.885 11.66 18 12 18ZM10.8 13.2H13.2V6H10.8V13.2ZM12 24C10.34 24 8.78 23.685 7.32 23.055C5.86 22.425 4.59 21.57 3.51 20.49C2.43 19.41 1.575 18.14 0.945 16.68C0.315 15.22 0 13.66 0 12C0 10.34 0.315 8.78 0.945 7.32C1.575 5.86 2.43 4.59 3.51 3.51C4.59 2.43 5.86 1.575 7.32 0.945C8.78 0.315 10.34 0 12 0C13.66 0 15.22 0.315 16.68 0.945C18.14 1.575 19.41 2.43 20.49 3.51C21.57 4.59 22.425 5.86 23.055 7.32C23.685 8.78 24 10.34 24 12C24 13.66 23.685 15.22 23.055 16.68C22.425 18.14 21.57 19.41 20.49 20.49C19.41 21.57 18.14 22.425 16.68 23.055C15.22 23.685 13.66 24 12 24Z" fill="#FFB000"/>
</svg>
