<svg width="56" height="56" viewBox="0 0 56 56" fill="none" xmlns="http://www.w3.org/2000/svg">
<rect width="56" height="56" rx="28" fill="#9F0F0F"/>
<path fill-rule="evenodd" clip-rule="evenodd" d="M40.2938 15.701C41.0097 16.417 41.0097 17.5778 40.2938 18.2938L18.2938 40.2938C17.5778 41.0097 16.417 41.0097 15.701 40.2938C14.9851 39.5778 14.9851 38.417 15.701 37.701L37.701 15.701C38.417 14.9851 39.5778 14.9851 40.2938 15.701Z" fill="white"/>
<path fill-rule="evenodd" clip-rule="evenodd" d="M15.701 15.701C16.417 14.9851 17.5778 14.9851 18.2938 15.701L40.2938 37.701C41.0097 38.417 41.0097 39.5778 40.2938 40.2938C39.5778 41.0097 38.417 41.0097 37.701 40.2938L15.701 18.2938C14.9851 17.5778 14.9851 16.417 15.701 15.701Z" fill="white"/>
</svg>
