<svg width="32" height="32" viewBox="0 0 32 32" fill="none" xmlns="http://www.w3.org/2000/svg">
<path d="M16.0021 6.93288H26.6687C26.8102 6.93288 26.9459 6.87669 27.0459 6.77667C27.1459 6.67665 27.2021 6.54099 27.2021 6.39954C27.2021 6.2581 27.1459 6.12244 27.0459 6.02242C26.9459 5.9224 26.8102 5.86621 26.6687 5.86621H16.0021C15.8606 5.86621 15.725 5.9224 15.625 6.02242C15.5249 6.12244 15.4688 6.2581 15.4688 6.39954C15.4688 6.54099 15.5249 6.67665 15.625 6.77667C15.725 6.87669 15.8606 6.93288 16.0021 6.93288Z" fill="#828282"/>
<path d="M26.6681 8H18.6681C18.5267 8 18.391 8.05619 18.291 8.15621C18.191 8.25623 18.1348 8.39188 18.1348 8.53333C18.1348 8.67478 18.191 8.81044 18.291 8.91046C18.391 9.01048 18.5267 9.06667 18.6681 9.06667H26.6681C26.8095 9.06667 26.9452 9.01048 27.0452 8.91046C27.1452 8.81044 27.2014 8.67478 27.2014 8.53333C27.2014 8.39188 27.1452 8.25623 27.0452 8.15621C26.9452 8.05619 26.8095 8 26.6681 8Z" fill="#828282"/>
<path d="M30.4016 6.4H29.335V3.73333C29.335 3.59188 29.2788 3.45623 29.1788 3.35621C29.0787 3.25619 28.9431 3.2 28.8016 3.2H25.6016V0.533333C25.6016 0.391885 25.5454 0.256229 25.4454 0.15621C25.3454 0.0561903 25.2098 0 25.0683 0H2.6683C2.52685 0 2.3912 0.0561903 2.29118 0.15621C2.19116 0.256229 2.13497 0.391885 2.13497 0.533333V6.4H1.9643C1.42147 6.42356 0.9101 6.66131 0.542223 7.06118C0.174347 7.46105 -0.0200434 7.99042 0.00163696 8.53333V29.824C-0.0200916 30.3765 0.177343 30.9151 0.550943 31.3227C0.924542 31.7303 1.44404 31.9737 1.9963 32H30.087C30.6285 31.963 31.1336 31.7136 31.4921 31.3061C31.8507 30.8985 32.0338 30.3659 32.0016 29.824V8C32.0016 7.57565 31.8331 7.16869 31.533 6.86863C31.2329 6.56857 30.826 6.4 30.4016 6.4ZM5.8683 3.73333V6.432C5.39805 6.54001 4.9805 6.80936 4.6882 7.19325C4.3959 7.57713 4.24733 8.05129 4.2683 8.53333V28.8H3.20164V1.06667H24.535V3.2H6.40164C6.26019 3.2 6.12453 3.25619 6.02451 3.35621C5.92449 3.45623 5.8683 3.59188 5.8683 3.73333ZM18.135 28.8C16.6582 28.8 15.2146 28.3621 13.9867 27.5416C12.7588 26.7212 11.8018 25.5551 11.2367 24.1907C10.6715 22.8263 10.5237 21.3251 10.8118 19.8767C11.0999 18.4283 11.811 17.0978 12.8552 16.0536C13.8995 15.0094 15.2299 14.2982 16.6783 14.0101C18.1267 13.722 19.628 13.8699 20.9923 14.435C22.3567 15.0002 23.5228 15.9572 24.3433 17.1851C25.1637 18.413 25.6016 19.8566 25.6016 21.3333C25.6016 23.3136 24.815 25.2128 23.4147 26.6131C22.0144 28.0133 20.1153 28.8 18.135 28.8ZM28.2683 10.6667H17.2603C17.147 10.6662 17.0382 10.6223 16.9563 10.544L12.999 6.81067C12.719 6.54695 12.3489 6.40006 11.9643 6.4H6.93497V4.26667H28.2683V10.6667Z" fill="#828282"/>
<path d="M18.1344 14.9336C16.8686 14.9336 15.6312 15.3089 14.5787 16.0122C13.5263 16.7154 12.7059 17.715 12.2215 18.8844C11.7371 20.0539 11.6104 21.3407 11.8574 22.5822C12.1043 23.8237 12.7138 24.964 13.6089 25.8591C14.504 26.7541 15.6443 27.3637 16.8858 27.6106C18.1273 27.8576 19.4141 27.7308 20.5836 27.2464C21.753 26.762 22.7525 25.9417 23.4558 24.8892C24.159 23.8368 24.5344 22.5994 24.5344 21.3336C24.5344 19.6362 23.8601 18.0083 22.6599 16.8081C21.4596 15.6079 19.8318 14.9336 18.1344 14.9336ZM20.801 22.1336H15.4677C15.2555 22.1336 15.0521 22.0493 14.902 21.8993C14.752 21.7493 14.6677 21.5458 14.6677 21.3336C14.6677 21.1214 14.752 20.9179 14.902 20.7679C15.0521 20.6179 15.2555 20.5336 15.4677 20.5336H20.801C21.0132 20.5336 21.2167 20.6179 21.3667 20.7679C21.5168 20.9179 21.601 21.1214 21.601 21.3336C21.601 21.5458 21.5168 21.7493 21.3667 21.8993C21.2167 22.0493 21.0132 22.1336 20.801 22.1336Z" fill="#828282"/>
</svg>
