<svg width="21" height="20" viewBox="0 0 21 20" fill="none" xmlns="http://www.w3.org/2000/svg">
<path fill-rule="evenodd" clip-rule="evenodd" d="M4.15137 3.33341C3.93035 3.33341 3.71839 3.42121 3.56211 3.57749C3.40583 3.73377 3.31803 3.94573 3.31803 4.16675L3.31803 15.8334C3.31803 16.0544 3.40583 16.2664 3.56211 16.4227C3.71839 16.579 3.93035 16.6667 4.15137 16.6667H17.4847C17.7057 16.6667 17.9177 16.579 18.074 16.4227C18.2302 16.2664 18.318 16.0544 18.318 15.8334L18.318 6.66675C18.318 6.44573 18.2302 6.23377 18.074 6.07749C17.9177 5.92121 17.7057 5.83341 17.4847 5.83341L9.9847 5.83341C9.70607 5.83341 9.44588 5.69416 9.29133 5.46233L7.87205 3.33341L4.15137 3.33341ZM2.3836 2.39898C2.85244 1.93014 3.48833 1.66675 4.15137 1.66675L8.31803 1.66675C8.59666 1.66675 8.85685 1.806 9.01141 2.03783L10.4307 4.16675L17.4847 4.16675C18.1477 4.16675 18.7836 4.43014 19.2525 4.89898C19.7213 5.36782 19.9847 6.00371 19.9847 6.66675L19.9847 15.8334C19.9847 16.4965 19.7213 17.1323 19.2525 17.6012C18.7836 18.07 18.1477 18.3334 17.4847 18.3334L4.15137 18.3334C3.48833 18.3334 2.85244 18.07 2.3836 17.6012C1.91476 17.1323 1.65137 16.4965 1.65137 15.8334L1.65137 4.16675C1.65137 3.50371 1.91476 2.86782 2.3836 2.39898Z" fill="black"/>
</svg>
