<svg width="16" height="17" viewBox="0 0 16 17" fill="none" xmlns="http://www.w3.org/2000/svg">
<g clip-path="url(#clip0_28933_110467)">
<path d="M8 16.7188C6.90278 16.7188 5.86806 16.5104 4.89583 16.0938C3.92361 15.6771 3.07292 15.1042 2.34375 14.375C1.61458 13.6458 1.04167 12.7951 0.625 11.8229C0.208333 10.8507 0 9.81597 0 8.71875C0 7.60764 0.211806 6.56597 0.635417 5.59375C1.05903 4.62153 1.63194 3.77431 2.35417 3.05208L3.41667 4.11458C2.83333 4.69792 2.36806 5.38542 2.02083 6.17708C1.67361 6.96875 1.5 7.81597 1.5 8.71875C1.5 10.5243 2.13194 12.059 3.39583 13.3229C4.65972 14.5868 6.19444 15.2188 8 15.2188C9.80556 15.2188 11.3403 14.5868 12.6042 13.3229C13.8681 12.059 14.5 10.5243 14.5 8.71875C14.5 7.81597 14.3333 6.96875 14 6.17708C13.6667 5.38542 13.2014 4.69792 12.6042 4.11458L13.6667 3.05208C14.4028 3.77431 14.9757 4.62153 15.3854 5.59375C15.7951 6.56597 16 7.60764 16 8.71875C16 9.81597 15.7917 10.8507 15.375 11.8229C14.9583 12.7951 14.3854 13.6458 13.6562 14.375C12.9271 15.1042 12.0799 15.6771 11.1146 16.0938C10.1493 16.5104 9.11111 16.7188 8 16.7188ZM7.25 9.71875V0.71875H8.75V9.71875H7.25Z" fill="white"/>
</g>
<defs>
<clipPath id="clip0_28933_110467">
<rect width="16" height="16" fill="white" transform="translate(0 0.71875)"/>
</clipPath>
</defs>
</svg>
